# xmcd
#
# Track frame offsets:
#	150
#	14255
#	28680
#	41635
#	57915
#	73525
#	88995
#	104242
#	116602
#	130462
#	147057
#	163945
#	177815
#	194662
#
# Disc length: 2775
#
# Revision: 1
# Processed by: cddbd v1.5.1PL0 Copyright (c) Steve Scherf et al.
# Submitted via: VisiTrax 2.9.3.171 - For more info visit www.synapsa.com
# Normalized: r0:DSETVAR1
#
DISCID=d20ad50e
DTITLE=Various Artist - Mr Music Country 11*93
DYEAR=1900
DGENRE=
TTITLE0=Gibson/Miller Band - Texas Tattoo
TTITLE1=Dolly Parton - More Where That Came From
TTITLE2=Franklin Haynes - I'm 99 Proof That She's Gone
TTITLE3=Kim Perry - She Once Knew Love
TTITLE4=Larry Boone - Daddy's Honky Tonk Heart
TTITLE5=Waylon Jennings - Hank Williams Syndrome
TTITLE6=Joy White - Wherever You Are
TTITLE7=George Jones - Get Up And Get Out Of These Blues
TTITLE8=Inger Nordström and Her Rhinestone Band - Sylvie Marie
TTITLE9=Vern Gosdin - This Song Wrote Itself
TTITLE10=Joe Diffie - Prop Me Up Beside The Jukebox (If I Die)
TTITLE11=Doug Stone - Leave Me The Radio
TTITLE12=Lisa Rich - Just For The Record
TTITLE13=Ricky Van Shelton - My First Reaction
EXTD=
EXTT0=
EXTT1=
EXTT2=
EXTT3=
EXTT4=
EXTT5=
EXTT6=
EXTT7=
EXTT8=
EXTT9=
EXTT10=
EXTT11=
EXTT12=
EXTT13=
PLAYORDER=
